mtllib model_5.mtl
o model_5
v 0.026589980348944664 -1.728959560394287 0.09694074094295502 
v 0.026589980348944664 -1.733547329902649 0.0728539526462555 
v 0.026589980348944664 -1.7179487943649292 0.11732187122106552 
v 0.026589980348944664 -1.7317122220993042 0.020974712446331978 
v 0.026589980348944664 -1.7051030397415161 0.030238861218094826 
v 0.026589980348944664 -1.7041854858398438 0.05247281491756439 
v 0.026589980348944664 -1.69868004322052 0.07100111991167068 
v 0.026589980348944664 -1.6913396120071411 0.08767659217119217 
v 0.026589980348944664 -1.6794112920761108 0.10064639896154404 
v 0.026589980348944664 -1.6573898792266846 0.11917469650506973 
v 0.026589980348944664 -1.6225227117538452 0.17846526205539703 
v 0.026589980348944664 -1.6298631429672241 0.13029168546199799 
v 0.026589980348944664 -1.6197700500488281 0.1506728082895279 
v 0.026589980348944664 -1.736299991607666 0.04506149888038635 
v 0.026589980348944664 -1.6684006452560425 0.18772941827774048 
v 0.026589980348944664 -1.6913396120071411 0.16734828054904938 
v 0.026589980348944664 -1.7041854858398438 0.14326149225234985 
v 0.026589980348944664 -1.6977624893188477 0.006152072921395302 
v 0.026589980348944664 -1.6775761842727661 -0.043874338269233704 
v 0.026589980348944664 -1.685834288597107 -0.016081882640719414 
v 0.026589980348944664 -1.672070860862732 -0.036463022232055664 
v 0.026589980348944664 -1.685834288597107 -0.04758000373840332 
v 0.026589980348944664 -1.7051030397415161 -0.030904529616236687 
v 0.026589980348944664 -1.719783902168274 -0.006817741319537163 
v -0.026590000838041306 -1.7041854858398438 0.14326149225234985 
v -0.026590000838041306 -1.7179487943649292 0.11732187122106552 
v -0.026590000838041306 -1.6913396120071411 0.16734828054904938 
v -0.026590000838041306 -1.6225227117538452 0.17846526205539703 
v -0.026590000838041306 -1.6684006452560425 0.18772941827774048 
v -0.026590000838041306 -1.6197700500488281 0.1506728082895279 
v -0.026590000838041306 -1.6298631429672241 0.13029168546199799 
v -0.026590000838041306 -1.6573898792266846 0.11917469650506973 
v -0.026590000838041306 -1.6794112920761108 0.10064639896154404 
v -0.026590000838041306 -1.6913396120071411 0.08767659217119217 
v -0.026590000838041306 -1.69868004322052 0.07100111991167068 
v -0.026590000838041306 -1.7041854858398438 0.05247281491756439 
v -0.026590000838041306 -1.7051030397415161 0.030238861218094826 
v -0.026590000838041306 -1.7317122220993042 0.020974712446331978 
v -0.026590000838041306 -1.6977624893188477 0.006152072921395302 
v -0.026590000838041306 -1.6775761842727661 -0.043874338269233704 
v -0.026590000838041306 -1.685834288597107 -0.016081882640719414 
v -0.026590000838041306 -1.672070860862732 -0.036463022232055664 
v -0.026590000838041306 -1.685834288597107 -0.04758000373840332 
v -0.026590000838041306 -1.7051030397415161 -0.030904529616236687 
v -0.026590000838041306 -1.719783902168274 -0.006817741319537163 
v -0.026590000838041306 -1.736299991607666 0.04506149888038635 
v -0.026590000838041306 -1.733547329902649 0.0728539526462555 
v -0.026590000838041306 -1.728959560394287 0.09694074094295502 
v -0.026590000838041306 -1.6225227117538452 0.17846526205539703 
v -0.026590000838041306 -1.6684006452560425 0.18772941827774048 
v 0.026589980348944664 -1.6225227117538452 0.17846526205539703 
v 0.026589980348944664 -1.6684006452560425 0.18772941827774048 
v 0.026589980348944664 -1.6197700500488281 0.1506728082895279 
v -0.026590000838041306 -1.6197700500488281 0.1506728082895279 
v 0.026589980348944664 -1.6225227117538452 0.17846526205539703 
v -0.026590000838041306 -1.6225227117538452 0.17846526205539703 
v 0.026589980348944664 -1.6298631429672241 0.13029168546199799 
v -0.026590000838041306 -1.6298631429672241 0.13029168546199799 
v 0.026589980348944664 -1.6197700500488281 0.1506728082895279 
v -0.026590000838041306 -1.6197700500488281 0.1506728082895279 
v -0.026590000838041306 -1.6298631429672241 0.13029168546199799 
v 0.026589980348944664 -1.6298631429672241 0.13029168546199799 
v -0.026590000838041306 -1.6573898792266846 0.11917469650506973 
v 0.026589980348944664 -1.6573898792266846 0.11917469650506973 
v -0.026590000838041306 -1.6794112920761108 0.10064639896154404 
v 0.026589980348944664 -1.6794112920761108 0.10064639896154404 
v -0.026590000838041306 -1.6913396120071411 0.08767659217119217 
v 0.026589980348944664 -1.6913396120071411 0.08767659217119217 
v -0.026590000838041306 -1.69868004322052 0.07100111991167068 
v 0.026589980348944664 -1.69868004322052 0.07100111991167068 
v -0.026590000838041306 -1.7041854858398438 0.05247281491756439 
v 0.026589980348944664 -1.7041854858398438 0.05247281491756439 
v -0.026590000838041306 -1.7051030397415161 0.030238861218094826 
v 0.026589980348944664 -1.7051030397415161 0.030238861218094826 
v -0.026590000838041306 -1.6977624893188477 0.006152072921395302 
v 0.026589980348944664 -1.6977624893188477 0.006152072921395302 
v -0.026590000838041306 -1.685834288597107 -0.016081882640719414 
v 0.026589980348944664 -1.685834288597107 -0.016081882640719414 
v -0.026590000838041306 -1.672070860862732 -0.036463022232055664 
v 0.026589980348944664 -1.672070860862732 -0.036463022232055664 
v -0.026590000838041306 -1.672070860862732 -0.036463022232055664 
v 0.026589980348944664 -1.672070860862732 -0.036463022232055664 
v -0.026590000838041306 -1.6775761842727661 -0.043874338269233704 
v 0.026589980348944664 -1.6775761842727661 -0.043874338269233704 
v -0.026590000838041306 -1.685834288597107 -0.04758000373840332 
v 0.026589980348944664 -1.685834288597107 -0.04758000373840332 
v -0.026590000838041306 -1.685834288597107 -0.04758000373840332 
v 0.026589980348944664 -1.685834288597107 -0.04758000373840332 
v -0.026590000838041306 -1.7051030397415161 -0.030904529616236687 
v 0.026589980348944664 -1.7051030397415161 -0.030904529616236687 
v -0.026590000838041306 -1.719783902168274 -0.006817741319537163 
v 0.026589980348944664 -1.719783902168274 -0.006817741319537163 
v -0.026590000838041306 -1.7317122220993042 0.020974712446331978 
v 0.026589980348944664 -1.7317122220993042 0.020974712446331978 
v -0.026590000838041306 -1.736299991607666 0.04506149888038635 
v 0.026589980348944664 -1.736299991607666 0.04506149888038635 
v -0.026590000838041306 -1.733547329902649 0.0728539526462555 
v 0.026589980348944664 -1.733547329902649 0.0728539526462555 
v -0.026590000838041306 -1.728959560394287 0.09694074094295502 
v 0.026589980348944664 -1.728959560394287 0.09694074094295502 
v -0.026590000838041306 -1.7179487943649292 0.11732187122106552 
v 0.026589980348944664 -1.7179487943649292 0.11732187122106552 
v -0.026590000838041306 -1.7041854858398438 0.14326149225234985 
v 0.026589980348944664 -1.7041854858398438 0.14326149225234985 
v -0.026590000838041306 -1.6913396120071411 0.16734828054904938 
v 0.026589980348944664 -1.6913396120071411 0.16734828054904938 
v -0.026590000838041306 -1.6684006452560425 0.18772941827774048 
v 0.026589980348944664 -1.6684006452560425 0.18772941827774048 
vn 0.999997615814209 0 0.002184694167226553 
vn 0.999997615814209 0 0.002184694167226553 
vn 0.999997615814209 0 0.002184694167226553 
vn 0.999997615814209 0 0.002184694167226553 
vn 0.999997615814209 0 0.002184694167226553 
vn 0.999997615814209 0 0.002184694167226553 
vn 0.999997615814209 0 0.002184694167226553 
vn 0.999997615814209 0 0.002184694167226553 
vn 0.999997615814209 0 0.002184694167226553 
vn 0.999997615814209 0 0.002184694167226553 
vn 0.999997615814209 0 0.002184694167226553 
vn 0.999997615814209 0 0.002184694167226553 
vn 0.999997615814209 0 0.002184694167226553 
vn 0.999997615814209 0 0.002184694167226553 
vn 0.999997615814209 0 0.002184694167226553 
vn 0.999997615814209 0 0.002184694167226553 
vn 0.999997615814209 0 0.002184694167226553 
vn 0.999997615814209 0 0.002184694167226553 
vn 0.999997615814209 0 0.002184694167226553 
vn 0.999997615814209 0 0.002184694167226553 
vn 0.999997615814209 0 0.002184694167226553 
vn 0.999997615814209 0 0.002184694167226553 
vn 0.999997615814209 0 0.002184694167226553 
vn 0.999997615814209 0 0.002184694167226553 
vn -0.999997615814209 -2.0682260971124217e-13 0.002184694167226553 
vn -0.999997615814209 -2.0682260971124217e-13 0.002184694167226553 
vn -0.999997615814209 -2.0682260971124217e-13 0.002184694167226553 
vn -0.999997615814209 -2.0682260971124217e-13 0.002184694167226553 
vn -0.999997615814209 -2.0682260971124217e-13 0.002184694167226553 
vn -0.999997615814209 -2.0682260971124217e-13 0.002184694167226553 
vn -0.999997615814209 -2.0682260971124217e-13 0.002184694167226553 
vn -0.999997615814209 -2.0682260971124217e-13 0.002184694167226553 
vn -0.999997615814209 -2.0682260971124217e-13 0.002184694167226553 
vn -0.999997615814209 -2.0682260971124217e-13 0.002184694167226553 
vn -0.999997615814209 -2.0682260971124217e-13 0.002184694167226553 
vn -0.999997615814209 -2.0682260971124217e-13 0.002184694167226553 
vn -0.999997615814209 -2.0682260971124217e-13 0.002184694167226553 
vn -0.999997615814209 -2.0682260971124217e-13 0.002184694167226553 
vn -0.999997615814209 -2.0682260971124217e-13 0.002184694167226553 
vn -0.999997615814209 -2.0682260971124217e-13 0.002184694167226553 
vn -0.999997615814209 -2.0682260971124217e-13 0.002184694167226553 
vn -0.999997615814209 -2.0682260971124217e-13 0.002184694167226553 
vn -0.999997615814209 -2.0682260971124217e-13 0.002184694167226553 
vn -0.999997615814209 -2.0682260971124217e-13 0.002184694167226553 
vn -0.999997615814209 -2.0682260971124217e-13 0.002184694167226553 
vn -0.999997615814209 -2.0682260971124217e-13 0.002184694167226553 
vn -0.999997615814209 -2.0682260971124217e-13 0.002184694167226553 
vn -0.999997615814209 -2.0682260971124217e-13 0.002184694167226553 
vn -0.0018731803866103292 0.2039123922586441 0.9789873361587524 
vn -0.0018731803866103292 0.2039123922586441 0.9789873361587524 
vn -0.0018731803866103292 0.2039123922586441 0.9789873361587524 
vn -0.0018731803866103292 0.2039123922586441 0.9789873361587524 
vn -1.0291221271430812e-13 0.995171308517456 0.0981530249118805 
vn -1.0291221271430812e-13 0.995171308517456 0.0981530249118805 
vn -1.0291221271430812e-13 0.995171308517456 0.0981530249118805 
vn -1.0291221271430812e-13 0.995171308517456 0.0981530249118805 
vn -0.0018884871387854218 0.8836511373519897 -0.46814218163490295 
vn -0.0018884871387854218 0.8836511373519897 -0.46814218163490295 
vn -0.0018884871387854218 0.8836511373519897 -0.46814218163490295 
vn -0.0018884871387854218 0.8836511373519897 -0.46814218163490295 
vn -4.087469295324664e-14 0.39526233077049255 -0.9185682535171509 
vn -4.087469295324664e-14 0.39526233077049255 -0.9185682535171509 
vn 0.00188818434253335 0.5156794786453247 -0.8567795157432556 
vn 0.00188818434253335 0.5156794786453247 -0.8567795157432556 
vn 0.0018886286998167634 0.6985569000244141 -0.715552031993866 
vn 0.0018886286998167634 0.6985569000244141 -0.715552031993866 
vn -8.753529856259795e-14 0.8464750647544861 -0.5324283838272095 
vn -8.753529856259795e-14 0.8464750647544861 -0.5324283838272095 
vn 0.0037774231750518084 0.9402648210525513 -0.34042292833328247 
vn 0.0037774231750518084 0.9402648210525513 -0.34042292833328247 
vn 0.0037733782082796097 0.9873023629188538 -0.15880759060382843 
vn 0.0037733782082796097 0.9873023629188538 -0.15880759060382843 
vn 0.003775948192924261 0.992782473564148 0.11986933648586273 
vn 0.003775948192924261 0.992782473564148 0.11986933648586273 
vn -9.563630134134735e-14 0.9228310585021973 0.3852050006389618 
vn -9.563630134134735e-14 0.9228310585021973 0.3852050006389618 
vn -0.001885827980004251 0.848791241645813 0.528724730014801 
vn -0.001885827980004251 0.848791241645813 0.528724730014801 
vn 0.0018858956173062325 0.8224084973335266 0.5688942670822144 
vn 0.0018858956173062325 0.8224084973335266 0.5688942670822144 
vn -0.001889931270852685 0.7640098929405212 -0.6452018022537231 
vn -0.001889931270852685 0.7640098929405212 -0.6452018022537231 
vn -6.620206905458628e-14 0.6401805877685547 -0.7682244777679443 
vn -6.620206905458628e-14 0.6401805877685547 -0.7682244777679443 
vn 0.0018896800465881824 0.4968397617340088 -0.8678402304649353 
vn 0.0018896800465881824 0.4968397617340088 -0.8678402304649353 
vn 2.091258210438346e-13 -0.6731256246566772 -0.7395281791687012 
vn 2.091258210438346e-13 -0.6731256246566772 -0.7395281791687012 
vn 0.0037797014228999615 -0.7723944783210754 -0.6351318359375 
vn 0.0037797014228999615 -0.7723944783210754 -0.6351318359375 
vn 0.001887704012915492 -0.8856881856918335 -0.4642767012119293 
vn 0.001887704012915492 -0.8856881856918335 -0.4642767012119293 
vn 0.0018875868991017342 -0.9529271721839905 -0.30319350957870483 
vn 0.0018875868991017342 -0.9529271721839905 -0.30319350957870483 
vn -0.0018882581498473883 -0.998945951461792 -0.04586252197623253 
vn -0.0018882581498473883 -0.998945951461792 -0.04586252197623253 
vn 3.066722765489305e-13 -0.9899342060089111 0.1415284425020218 
vn 3.066722765489305e-13 -0.9899342060089111 0.1415284425020218 
vn 0.003771411720663309 -0.9387684464454651 0.34452807903289795 
vn 0.003771411720663309 -0.9387684464454651 0.34452807903289795 
vn 0.0037733204662799835 -0.8815911412239075 0.4719987213611603 
vn 0.0037733204662799835 -0.8815911412239075 0.4719987213611603 
vn 2.7374741471027086e-13 -0.8836531639099121 0.46814218163490295 
vn 2.7374741471027086e-13 -0.8836531639099121 0.46814218163490295 
vn 0.003773098811507225 -0.7806534767150879 0.6249527335166931 
vn 0.003773098811507225 -0.7806534767150879 0.6249527335166931 
vn 0.0037715123035013676 -0.669877290725708 0.7424622178077698 
vn 0.0037715123035013676 -0.669877290725708 0.7424622178077698 
s on 
f 1//1 2//2 3//3 
f 2//2 4//4 3//3 
f 3//3 4//4 3//3 
f 4//4 5//5 3//3 
f 3//3 5//5 3//3 
f 5//5 6//6 3//3 
f 3//3 6//6 3//3 
f 6//6 7//7 3//3 
f 3//3 7//7 3//3 
f 7//7 8//8 3//3 
f 3//3 8//8 3//3 
f 8//8 9//9 3//3 
f 3//3 9//9 3//3 
f 9//9 10//10 3//3 
f 3//3 10//10 11//11 
f 10//10 12//12 11//11 
f 11//11 12//12 13//13 
f 12//12 13//13 13//13 
f 13//13 13//13 2//2 
f 13//13 2//2 2//2 
f 2//2 2//2 4//4 
f 2//2 14//14 4//4 
f 4//4 14//14 14//14 
f 14//14 15//15 14//14 
f 14//14 15//15 15//15 
f 15//15 16//16 15//15 
f 15//15 16//16 11//11 
f 16//16 16//16 11//11 
f 11//11 16//16 3//3 
f 16//16 17//17 3//3 
f 3//3 17//17 17//17 
f 17//17 5//5 17//17 
f 17//17 5//5 5//5 
f 5//5 4//4 5//5 
f 5//5 4//4 18//18 
f 4//4 19//19 18//18 
f 18//18 19//19 20//20 
f 19//19 21//21 20//20 
f 20//20 21//21 21//21 
f 21//21 22//22 21//21 
f 21//21 22//22 22//22 
f 22//22 19//19 22//22 
f 22//22 19//19 23//23 
f 19//19 4//4 23//23 
f 23//23 4//4 24//24 
f 4//4 24//24 24//24 
f 24//24 24//24 25//25 
f 24//24 25//25 25//25 
f 25//25 25//25 26//26 
f 25//25 27//27 26//26 
f 26//26 27//27 28//28 
f 27//27 29//29 28//28 
f 28//28 29//29 29//29 
f 29//29 30//30 29//29 
f 29//29 30//30 30//30 
f 30//30 31//31 30//30 
f 30//30 31//31 28//28 
f 31//31 32//32 28//28 
f 28//28 32//32 26//26 
f 32//32 33//33 26//26 
f 26//26 33//33 26//26 
f 33//33 34//34 26//26 
f 26//26 34//34 26//26 
f 34//34 35//35 26//26 
f 26//26 35//35 26//26 
f 35//35 36//36 26//26 
f 26//26 36//36 26//26 
f 36//36 37//37 26//26 
f 26//26 37//37 38//38 
f 37//37 39//39 38//38 
f 38//38 39//39 40//40 
f 39//39 41//41 40//40 
f 40//40 41//41 42//42 
f 41//41 42//42 42//42 
f 42//42 42//42 43//43 
f 42//42 43//43 43//43 
f 43//43 43//43 40//40 
f 43//43 44//44 40//40 
f 40//40 44//44 38//38 
f 44//44 45//45 38//38 
f 38//38 45//45 45//45 
f 45//45 46//46 45//45 
f 45//45 46//46 46//46 
f 46//46 47//47 46//46 
f 46//46 47//47 38//38 
f 47//47 47//47 38//38 
f 38//38 47//47 26//26 
f 47//47 48//48 26//26 
f 26//26 48//48 48//48 
f 48//48 49//49 48//48 
f 48//48 49//49 49//49 
f 49//49 50//50 49//49 
f 49//49 50//50 51//51 
f 50//50 52//52 51//51 
f 51//51 52//52 52//52 
f 52//52 53//53 52//52 
f 52//52 53//53 53//53 
f 53//53 54//54 53//53 
f 53//53 54//54 55//55 
f 54//54 56//56 55//55 
f 55//55 56//56 56//56 
f 56//56 57//57 56//56 
f 56//56 57//57 57//57 
f 57//57 58//58 57//57 
f 57//57 58//58 59//59 
f 58//58 60//60 59//59 
f 59//59 60//60 60//60 
f 60//60 61//61 60//60 
f 60//60 61//61 61//61 
f 61//61 62//62 61//61 
f 61//61 62//62 63//63 
f 62//62 64//64 63//63 
f 63//63 64//64 65//65 
f 64//64 66//66 65//65 
f 65//65 66//66 67//67 
f 66//66 68//68 67//67 
f 67//67 68//68 69//69 
f 68//68 70//70 69//69 
f 69//69 70//70 71//71 
f 70//70 72//72 71//71 
f 71//71 72//72 73//73 
f 72//72 74//74 73//73 
f 73//73 74//74 75//75 
f 74//74 76//76 75//75 
f 75//75 76//76 77//77 
f 76//76 78//78 77//77 
f 77//77 78//78 79//79 
f 78//78 80//80 79//79 
f 79//79 80//80 80//80 
f 80//80 81//81 80//80 
f 80//80 81//81 81//81 
f 81//81 82//82 81//81 
f 81//81 82//82 83//83 
f 82//82 84//84 83//83 
f 83//83 84//84 85//85 
f 84//84 86//86 85//85 
f 85//85 86//86 86//86 
f 86//86 87//87 86//86 
f 86//86 87//87 87//87 
f 87//87 88//88 87//87 
f 87//87 88//88 89//89 
f 88//88 90//90 89//89 
f 89//89 90//90 91//91 
f 90//90 92//92 91//91 
f 91//91 92//92 93//93 
f 92//92 94//94 93//93 
f 93//93 94//94 95//95 
f 94//94 96//96 95//95 
f 95//95 96//96 97//97 
f 96//96 98//98 97//97 
f 97//97 98//98 99//99 
f 98//98 100//100 99//99 
f 99//99 100//100 101//101 
f 100//100 102//102 101//101 
f 101//101 102//102 103//103 
f 102//102 104//104 103//103 
f 103//103 104//104 105//105 
f 104//104 106//106 105//105 
f 105//105 106//106 107//107 
f 106//106 108//108 107//107 

